# xmcd
#
# Track frame offsets:
#	150
#	15462
#	34069
#	52726
#	64067
#	85771
#	105132
#	123160
#	133011
#	147366
#	159066
#
# Disc length: 2347 seconds
#
# Revision: 1
# Processed by: cddbd v1.4PL0 Copyright (c) Steve Scherf et al.
# Submitted via: CDmax 1.8
#
DISCID=7909290b
DTITLE=Joe Flood - Cripplin' Crutch
DYEAR=2001
DGENRE=Country
TTITLE0=Cripplin' Crutch
TTITLE1=A Little Bird Told Me
TTITLE2=Niagara
TTITLE3=All The Same To You
TTITLE4=Deep Sleep Blue
TTITLE5=Big Daddy Blues
TTITLE6=Automatic Monkey
TTITLE7=I Don't Want To Tell You Again
TTITLE8=Shades Of Gray
TTITLE9=High Maintenance Woman
TTITLE10=So The Story Goes
EXTD=
EXTT0=
EXTT1=
EXTT2=
EXTT3=
EXTT4=
EXTT5=
EXTT6=
EXTT7=
EXTT8=
EXTT9=
EXTT10=
PLAYORDER=
